<mxfile host="app.diagrams.net" modified="2023-09-19T02:02:17.086Z" agent="Mozilla/5.0 (Windows NT 10.0; Win64; x64) AppleWebKit/537.36 (KHTML, like Gecko) Chrome/112.0.0.0 Safari/537.36 Edg/112.0.1722.58" etag="NGCCREIUnLWPBmcWxWsL" version="21.7.5" type="device">
  <diagram name="Page-1" id="Tmp_Xd6g9-JHVPzsuJjh">
    <mxGraphModel dx="794" dy="740" grid="1" gridSize="10" guides="1" tooltips="1" connect="1" arrows="1" fold="1" page="1" pageScale="1" pageWidth="850" pageHeight="1100" math="0" shadow="0">
      <root>
        <mxCell id="0" />
        <mxCell id="1" parent="0" />
        <mxCell id="rXd9x2yBULyRPO7_0jnC-5" style="edgeStyle=orthogonalEdgeStyle;rounded=0;orthogonalLoop=1;jettySize=auto;html=1;exitX=1;exitY=0.5;exitDx=0;exitDy=0;" edge="1" parent="1" source="rXd9x2yBULyRPO7_0jnC-1">
          <mxGeometry relative="1" as="geometry">
            <mxPoint x="490" y="340" as="targetPoint" />
          </mxGeometry>
        </mxCell>
        <mxCell id="rXd9x2yBULyRPO7_0jnC-1" value="&lt;font color=&quot;#004c99&quot;&gt;hash function&lt;/font&gt;" style="shape=process;whiteSpace=wrap;html=1;backgroundOutline=1;strokeColor=#0000CC;" vertex="1" parent="1">
          <mxGeometry x="310" y="310" width="120" height="60" as="geometry" />
        </mxCell>
        <mxCell id="rXd9x2yBULyRPO7_0jnC-3" style="edgeStyle=orthogonalEdgeStyle;rounded=0;orthogonalLoop=1;jettySize=auto;html=1;exitX=0;exitY=0;exitDx=110;exitDy=80;exitPerimeter=0;entryX=0;entryY=0.5;entryDx=0;entryDy=0;" edge="1" parent="1" source="rXd9x2yBULyRPO7_0jnC-2" target="rXd9x2yBULyRPO7_0jnC-1">
          <mxGeometry relative="1" as="geometry" />
        </mxCell>
        <mxCell id="rXd9x2yBULyRPO7_0jnC-2" value="" style="shape=cube;whiteSpace=wrap;html=1;boundedLbl=1;backgroundOutline=1;darkOpacity=0.05;darkOpacity2=0.1;fillColor=default;strokeColor=#9673a6;gradientColor=none;fillStyle=hatch;" vertex="1" parent="1">
          <mxGeometry x="140" y="260" width="110" height="140" as="geometry" />
        </mxCell>
        <mxCell id="rXd9x2yBULyRPO7_0jnC-4" value="&lt;font color=&quot;#cda2be&quot; style=&quot;font-size: 14px;&quot;&gt;unique dictionary&lt;/font&gt;" style="text;html=1;strokeColor=none;fillColor=none;align=center;verticalAlign=middle;whiteSpace=wrap;rounded=0;" vertex="1" parent="1">
          <mxGeometry x="160" y="220" width="60" height="30" as="geometry" />
        </mxCell>
        <mxCell id="rXd9x2yBULyRPO7_0jnC-6" value="" style="shape=cube;whiteSpace=wrap;html=1;boundedLbl=1;backgroundOutline=1;darkOpacity=0.05;darkOpacity2=0.1;fillColor=default;strokeColor=#66CC00;gradientColor=none;fillStyle=hatch;" vertex="1" parent="1">
          <mxGeometry x="491" y="260" width="110" height="140" as="geometry" />
        </mxCell>
        <mxCell id="rXd9x2yBULyRPO7_0jnC-7" value="&lt;font style=&quot;font-size: 14px;&quot;&gt;&lt;font color=&quot;#66cc00&quot;&gt;hashed&lt;br&gt;dictionary&lt;/font&gt;&lt;br&gt;&lt;/font&gt;" style="text;html=1;strokeColor=none;fillColor=none;align=center;verticalAlign=middle;whiteSpace=wrap;rounded=0;" vertex="1" parent="1">
          <mxGeometry x="510" y="220" width="60" height="30" as="geometry" />
        </mxCell>
        <mxCell id="rXd9x2yBULyRPO7_0jnC-9" value="&lt;font color=&quot;#cda2be&quot;&gt;&lt;span style=&quot;font-size: 14px;&quot;&gt;K size&lt;/span&gt;&lt;/font&gt;" style="text;html=1;strokeColor=none;fillColor=none;align=center;verticalAlign=middle;whiteSpace=wrap;rounded=0;" vertex="1" parent="1">
          <mxGeometry x="165" y="410" width="60" height="30" as="geometry" />
        </mxCell>
        <mxCell id="rXd9x2yBULyRPO7_0jnC-10" value="&lt;font style=&quot;font-size: 14px;&quot;&gt;&lt;font color=&quot;#66cc00&quot;&gt;B size&lt;/font&gt;&lt;br&gt;&lt;/font&gt;" style="text;html=1;strokeColor=none;fillColor=none;align=center;verticalAlign=middle;whiteSpace=wrap;rounded=0;" vertex="1" parent="1">
          <mxGeometry x="516" y="410" width="60" height="30" as="geometry" />
        </mxCell>
      </root>
    </mxGraphModel>
  </diagram>
</mxfile>
